<?xml version="1.0" standalone="no"?><svg xmlns="http://www.w3.org/2000/svg" viewBox="0 0 1440 320"><path fill="#FFFFFF" fill-opacity="1" d="M0,320L20,309.3C40,299,80,277,120,250.7C160,224,200,192,240,197.3C280,203,320,245,360,218.7C400,192,440,96,480,80C520,64,560,128,600,176C640,224,680,256,720,261.3C760,267,800,245,840,202.7C880,160,920,96,960,90.7C1000,85,1040,139,1080,138.7C1120,139,1160,85,1200,69.3C1240,53,1280,75,1320,96C1360,117,1400,139,1420,149.3L1440,160L1440,0L1420,0C1400,0,1360,0,1320,0C1280,0,1240,0,1200,0C1160,0,1120,0,1080,0C1040,0,1000,0,960,0C920,0,880,0,840,0C800,0,760,0,720,0C680,0,640,0,600,0C560,0,520,0,480,0C440,0,400,0,360,0C320,0,280,0,240,0C200,0,160,0,120,0C80,0,40,0,20,0L0,0Z"></path></svg>